<svg width="256" height="256" viewBox="0 0 256 256" fill="none" xmlns="http://www.w3.org/2000/svg">
<path d="M125.909 56.0186C137.455 55.756 153.044 58.3539 165.897 65.2803C178.861 72.2663 189.5 83.9787 189.5 101.79C189.5 115.885 181.232 131.261 173.565 142.624C172.032 144.897 170.498 147.041 169.025 149.021C169.519 149.957 169.99 150.847 170.43 151.688C171.703 154.122 172.737 156.126 173.453 157.523C173.811 158.222 174.09 158.769 174.279 159.143C174.374 159.329 174.447 159.472 174.496 159.568C174.508 159.592 174.519 159.614 174.528 159.632L188.986 185.328C190.069 187.253 189.387 189.693 187.462 190.776C185.537 191.86 183.097 191.176 182.014 189.251L174.927 176.655L167.507 163.28L171 161.52L167.506 163.279L166.529 161.519L166.515 161.526C166.457 161.413 166.397 161.295 166.334 161.172C165.68 159.896 164.755 158.104 163.622 155.935C163.354 156.261 163.095 156.579 162.841 156.884C161.379 158.642 160.157 160.042 159.297 161.008C158.867 161.491 158.527 161.866 158.291 162.123C158.194 162.229 158.113 162.315 158.053 162.38C147.225 176.469 133.14 180.866 121.468 179.3C115.674 178.523 110.427 176.264 106.551 172.938C102.674 169.61 100 165.032 100 159.79H108C108 162.161 109.202 164.669 111.762 166.866C114.323 169.065 118.076 170.773 122.532 171.371C131.314 172.549 142.664 169.37 151.819 157.364L151.945 157.199L152.087 157.049L152.089 157.047C152.091 157.044 152.095 157.04 152.101 157.034C152.112 157.022 152.131 157.001 152.157 156.974C152.209 156.918 152.289 156.832 152.395 156.717C152.606 156.487 152.921 156.139 153.324 155.687C154.132 154.78 155.293 153.449 156.69 151.769C157.563 150.719 158.524 149.533 159.549 148.233C157.723 144.824 155.683 141.067 153.535 137.217C149.725 130.386 145.605 123.3 141.789 117.347C137.887 111.258 134.557 106.766 132.329 104.768C127.76 100.668 122.697 99.3433 118.624 99.626C114.318 99.9249 111.839 101.871 111.157 103.41C110.41 105.096 109.939 106.185 109.602 106.953C109.301 107.638 109.039 108.23 108.786 108.683C108.399 109.375 108.021 109.773 107.775 110.03C107.65 110.162 107.485 110.331 107.141 110.767C106.18 111.985 105.041 112.759 104.093 113.284C103.445 113.643 102.621 114.014 102.118 114.242C102.313 114.393 102.545 114.561 102.819 114.739C103.534 115.204 104.177 115.546 104.945 115.99C105.258 116.171 105.715 116.439 106.115 116.741C106.309 116.887 106.653 117.16 106.982 117.551C107.238 117.854 108 118.821 108 120.29V159.789C107.998 159.789 107.921 159.79 104 159.79C100.079 159.79 100.002 159.789 100 159.789V122.379C99.5288 122.108 98.9791 121.785 98.457 121.445C97.4996 120.822 96.2869 119.936 95.3125 118.763C94.3163 117.563 93.3226 115.752 93.5137 113.458L93.5488 113.127C93.7555 111.492 94.4603 110.137 95.4971 109.088C96.4762 108.097 97.6267 107.515 98.3623 107.165C100.263 106.261 100.573 106.177 100.859 105.813C101.328 105.22 101.648 104.869 101.874 104.629C101.885 104.605 101.9 104.579 101.914 104.548C101.999 104.364 102.112 104.11 102.276 103.736C102.598 103.004 103.09 101.87 103.843 100.17C106.161 94.936 112.061 92.0628 118.069 91.6455C124.31 91.2122 131.498 93.2745 137.671 98.8125C140.814 101.633 144.67 107.017 148.524 113.03C152.466 119.18 156.675 126.424 160.521 133.32C162.024 136.015 163.475 138.663 164.837 141.179C165.532 140.199 166.234 139.188 166.935 138.149C174.518 126.91 181.5 113.286 181.5 101.79C181.5 87.8297 173.389 78.4054 162.103 72.3232C150.706 66.1816 136.545 63.7788 126.091 64.0166C115.765 64.2515 105.973 67.3011 98.8369 73.3525C91.8086 79.3125 87.0001 88.4762 87 101.789V162.29C87.0001 167.15 89.4774 172.372 94.1533 177.175C98.8016 181.949 105.365 186.02 112.792 188.508C127.675 193.492 145.087 191.897 157.084 178.35C158.548 176.696 161.077 176.542 162.73 178.006C164.384 179.47 164.538 181.998 163.074 183.652C148.356 200.274 127.228 201.78 110.251 196.094C101.748 193.246 94.0507 188.538 88.4209 182.755C82.8189 177 79.0001 169.885 79 162.29V101.789C79.0001 86.3309 84.6916 74.8587 93.6631 67.251C102.527 59.7348 114.235 56.284 125.909 56.0186Z" fill="black"/>
<circle cx="120" cy="113.001" r="4" fill="black"/>
</svg>
