<svg width="420" height="256" viewBox="0 0 420 256" fill="none" xmlns="http://www.w3.org/2000/svg">
<path d="M124.909 47.0176C136.455 46.755 152.044 49.3529 164.897 56.2793C177.861 63.2653 188.5 74.9777 188.5 92.7891C188.5 106.884 180.232 122.26 172.565 133.623C171.032 135.896 169.498 138.04 168.025 140.02C168.519 140.956 168.99 141.846 169.43 142.687C170.703 145.121 171.737 147.125 172.453 148.522C172.811 149.221 173.09 149.769 173.279 150.142C173.374 150.328 173.447 150.471 173.496 150.567C173.508 150.591 173.519 150.613 173.528 150.631L187.986 176.327C189.069 178.252 188.387 180.692 186.462 181.775C184.537 182.859 182.097 182.175 181.014 180.25L173.927 167.654L166.507 154.279L170 152.519L166.506 154.278L165.529 152.518L165.515 152.525C165.457 152.412 165.397 152.294 165.334 152.171C164.68 150.895 163.755 149.103 162.622 146.934C162.354 147.26 162.095 147.578 161.841 147.883C160.379 149.641 159.157 151.041 158.297 152.007C157.867 152.49 157.527 152.865 157.291 153.122C157.194 153.228 157.113 153.314 157.053 153.379C146.225 167.468 132.14 171.865 120.468 170.299C114.674 169.522 109.427 167.263 105.551 163.937C101.674 160.609 99.0001 156.031 99 150.789H107C107 153.16 108.202 155.668 110.762 157.865C113.323 160.064 117.076 161.772 121.532 162.37C130.314 163.548 141.664 160.369 150.819 148.363L150.945 148.198L151.087 148.048L151.089 148.046C151.091 148.043 151.095 148.039 151.101 148.033C151.112 148.021 151.131 148 151.157 147.973C151.209 147.917 151.289 147.831 151.395 147.716C151.606 147.486 151.921 147.139 152.324 146.686C153.132 145.779 154.293 144.448 155.69 142.768C156.563 141.718 157.524 140.532 158.549 139.232C156.723 135.823 154.683 132.066 152.535 128.216C148.725 121.385 144.605 114.299 140.789 108.346C136.887 102.257 133.557 97.7653 131.329 95.7666C126.76 91.6673 121.697 90.3423 117.624 90.625C113.318 90.924 110.839 92.8701 110.157 94.4092C109.41 96.0955 108.939 97.1843 108.602 97.9521C108.301 98.6373 108.039 99.2287 107.786 99.6816C107.399 100.374 107.021 100.772 106.775 101.029C106.65 101.161 106.485 101.33 106.141 101.766C105.18 102.984 104.041 103.758 103.093 104.283C102.445 104.642 101.621 105.013 101.118 105.241C101.313 105.392 101.545 105.56 101.819 105.738C102.534 106.203 103.177 106.545 103.945 106.989C104.258 107.17 104.715 107.438 105.115 107.74C105.309 107.886 105.653 108.159 105.982 108.55C106.238 108.853 107 109.82 107 111.289V150.788C106.998 150.788 106.921 150.789 103 150.789C99.0793 150.789 99.0015 150.788 99 150.788V113.378C98.5288 113.107 97.9791 112.784 97.457 112.444C96.4996 111.821 95.2869 110.935 94.3125 109.762C93.3163 108.562 92.3226 106.751 92.5137 104.457L92.5488 104.126C92.7555 102.491 93.4603 101.136 94.4971 100.087C95.4762 99.0961 96.6267 98.5141 97.3623 98.1641C99.2625 97.2598 99.5728 97.1758 99.8594 96.8125C100.328 96.2188 100.648 95.8679 100.874 95.6279C100.885 95.6041 100.9 95.5777 100.914 95.5469C100.999 95.3634 101.112 95.1095 101.276 94.7354C101.598 94.0032 102.09 92.8685 102.843 91.1689C105.161 85.935 111.061 83.0618 117.069 82.6445C123.31 82.2112 130.498 84.2735 136.671 89.8115C139.814 92.6318 143.67 98.0156 147.524 104.029C151.466 110.179 155.675 117.423 159.521 124.319C161.024 127.014 162.475 129.662 163.837 132.178C164.532 131.198 165.234 130.187 165.935 129.148C173.518 117.909 180.5 104.285 180.5 92.7891C180.5 78.8287 172.389 69.4044 161.103 63.3223C149.706 57.1806 135.545 54.7779 125.091 55.0156C114.765 55.2505 104.973 58.3001 97.8369 64.3516C90.8086 70.3116 86.0001 79.4753 86 92.7881V153.289C86.0001 158.149 88.4774 163.371 93.1533 168.174C97.8016 172.948 104.365 177.019 111.792 179.507C126.675 184.491 144.087 182.896 156.084 169.349C157.548 167.695 160.077 167.541 161.73 169.005C163.384 170.469 163.538 172.997 162.074 174.651C147.356 191.273 126.228 192.779 109.251 187.093C100.748 184.245 93.0507 179.537 87.4209 173.754C81.8189 167.999 78.0001 160.884 78 153.289V92.7881C78.0001 77.3299 83.6916 65.8577 92.6631 58.25C101.527 50.7338 113.235 47.2831 124.909 47.0176Z" fill="black"/>
<circle cx="119" cy="104" r="4" fill="black"/>
<line x1="200" y1="178" x2="200" y2="154" stroke="black" stroke-width="8" stroke-linecap="round"/>
<line x1="311.464" y1="154.464" x2="323.464" y2="175.249" stroke="black" stroke-width="8" stroke-linecap="round"/>
<line x1="296" y1="178" x2="296" y2="122" stroke="black" stroke-width="8" stroke-linecap="round"/>
<line x1="307.536" y1="202.962" x2="335.536" y2="154.464" stroke="black" stroke-width="8" stroke-linecap="round"/>
<line x1="280" y1="178" x2="280" y2="122" stroke="black" stroke-width="8" stroke-linecap="round"/>
<circle cx="268" cy="166" r="12" stroke="black" stroke-width="8"/>
<path d="M240 178V166C240 159.373 234.627 154 228 154C221.373 154 216 159.373 216 166V178" stroke="black" stroke-width="8" stroke-linecap="round"/>
<circle cx="200" cy="142" r="4" fill="black"/>
</svg>
